<svg xmlns="http://www.w3.org/2000/svg" viewBox="0 0 900 520" role="img" aria-labelledby="title desc"><title id="title">Loopify</title><desc id="desc">Loopify digital marketing that grows logo</desc><defs><linearGradient id="g" x1="0" y1="0" x2="1" y2="0"><stop offset="0" stop-color="#071b49"/><stop offset="1" stop-color="#0878ff"/></linearGradient></defs><g fill="none" stroke="url(#g)" stroke-linecap="round" stroke-linejoin="round"><path d="M145 180c-58 0-98 48-98 94 0 50 41 91 91 91 55 0 88-34 130-75l124-119c39-37 77-61 128-61 52 0 93 40 93 90 0 51-40 92-91 92-55 0-88-34-129-74l-57-55" stroke-width="42"/><path d="M211 188V52" stroke-width="44"/><path d="M594 114V67M638 100V40M682 91V25" stroke-width="25"/><path d="M698 100l69-50M767 50l-9 48M767 50l-48 10" stroke-width="16"/></g><g font-family="Arial,Helvetica,sans-serif" font-weight="700"><text x="50" y="472" font-size="112" letter-spacing="-5" fill="#071b49">Loop</text><text x="462" y="472" font-size="112" letter-spacing="-5" fill="#0878ff">ify</text></g><g fill="#1a1a1a" font-family="Arial,Helvetica,sans-serif" font-size="25" letter-spacing="8"><text x="172" y="510">DIGITAL MARKETING THAT GROWS</text></g><path d="M76 510h52M772 510h52" stroke="#0878ff" stroke-width="4"/></svg>